<?xml version="1.0" standalone="no"?>
<!DOCTYPE svg PUBLIC "-//W3C//DTD SVG 20010904//EN"
 "http://www.w3.org/TR/2001/REC-SVG-20010904/DTD/svg10.dtd">
<svg version="1.0" xmlns="http://www.w3.org/2000/svg"
 width="640.000000pt" height="640.000000pt" viewBox="0 0 640.000000 640.000000"
 preserveAspectRatio="xMidYMid meet">

<g transform="translate(0.000000,640.000000) scale(0.100000,-0.100000)"
fill="#000000" stroke="none">
<path d="M2163 5503 c-83 -16 -156 -236 -194 -578 -12 -113 -15 -120 -79 -195
-61 -71 -162 -208 -179 -241 -7 -14 -22 -37 -34 -52 l-22 -26 -100 76 c-127
95 -276 196 -407 275 -172 102 -358 234 -490 345 -9 8 -18 10 -22 5 -11 -17
248 -209 443 -327 112 -68 403 -259 421 -276 8 -8 49 -40 90 -71 108 -81 306
-286 458 -473 51 -63 110 -198 137 -315 18 -80 19 -100 2 -100 -7 0 -29 -9
-51 -20 -29 -17 -47 -20 -82 -14 -39 5 -47 11 -63 43 -55 106 -193 254 -374
402 -155 126 -193 158 -251 207 -27 23 -53 42 -58 42 -14 0 -9 -16 11 -34 11
-10 27 -33 36 -52 9 -19 20 -34 25 -34 6 0 10 -5 10 -11 0 -6 34 -48 74 -94
98 -111 103 -118 131 -221 13 -49 31 -109 39 -133 9 -24 16 -48 16 -53 0 -19
-315 15 -445 48 -144 37 -324 154 -509 331 -91 88 -145 176 -192 311 -31 89
-49 116 -41 60 17 -114 234 -512 342 -630 58 -63 157 -142 225 -180 132 -73
459 -200 597 -232 52 -12 71 -22 109 -60 l46 -46 -29 -11 c-15 -6 -80 -29
-143 -51 -112 -39 -117 -40 -209 -34 -232 16 -547 92 -721 173 -102 48 -211
115 -264 164 -73 67 -132 184 -156 309 -10 54 -46 326 -55 425 -9 85 -12 106
-21 114 -16 15 45 -499 72 -603 19 -74 66 -168 110 -223 32 -38 155 -127 229
-166 176 -90 432 -163 693 -198 85 -11 93 -14 90 -33 -2 -17 -28 -28 -148 -68
-345 -113 -683 -212 -920 -270 -140 -34 -256 -62 -258 -63 -1 -1 12 -65 29
-141 141 -634 480 -1219 962 -1661 205 -189 467 -372 698 -488 l69 -35 252
151 c230 138 468 290 509 325 27 24 37 16 65 -58 80 -215 141 -340 196 -401
36 -41 47 -48 69 -42 28 7 155 115 294 250 50 48 115 106 145 130 l55 42 146
-5 c142 -5 146 -4 167 18 24 26 41 92 49 195 6 77 16 105 38 105 28 0 160 63
182 87 21 22 23 32 20 133 -1 59 2 112 6 116 4 4 99 -29 210 -75 335 -138 438
-171 531 -171 135 0 258 44 377 136 113 87 132 202 46 293 -36 37 -155 119
-292 201 -180 108 -257 162 -247 172 19 19 400 187 682 301 205 83 285 111
315 110 22 -1 94 -5 160 -9 141 -8 204 3 290 51 80 44 148 122 175 202 8 22
24 37 55 52 41 19 43 22 53 83 26 150 35 288 35 505 0 128 -2 235 -4 238 -21
21 -678 -187 -981 -310 -73 -30 -88 -31 -88 -7 0 9 16 80 36 157 127 491 174
786 174 1080 0 178 -8 237 -34 263 -14 14 -21 14 -73 -8 -137 -55 -460 -255
-546 -337 -17 -17 -20 -17 -60 6 -23 13 -64 38 -92 56 -131 85 -347 197 -452
235 -35 12 -63 25 -64 29 0 3 -4 139 -9 301 -9 293 -25 425 -61 512 -12 30
-45 44 -82 34 -153 -38 -789 -653 -1263 -1220 l-40 -49 -13 108 c-14 121 -61
365 -90 470 -71 252 -192 503 -299 620 -83 89 -135 119 -189 108z m71 -28 c18
-9 53 -37 78 -63 51 -52 171 -221 148 -207 -11 6 -10 3 2 -11 18 -20 98 -189
98 -206 0 -5 14 -44 30 -85 17 -42 32 -83 33 -92 1 -9 5 -20 9 -26 3 -5 18
-71 32 -145 15 -74 33 -162 41 -195 8 -33 16 -109 18 -168 l4 -109 -104 -131
c-140 -177 -143 -180 -143 -189 0 -4 -22 -42 -50 -85 -27 -43 -50 -70 -50 -60
0 9 11 72 24 140 55 277 73 612 37 691 -10 23 -36 93 -56 157 -50 154 -104
263 -131 267 -17 2 -25 -7 -43 -47 -30 -70 -88 -285 -96 -357 -4 -32 -10 -72
-15 -89 -13 -48 -19 -115 -9 -115 4 0 17 31 29 70 19 63 118 278 142 307 18
22 45 -4 81 -79 63 -130 66 -297 12 -488 -7 -25 -21 -72 -30 -105 -9 -33 -21
-71 -25 -85 -5 -14 -18 -58 -30 -98 -12 -40 -25 -70 -31 -67 -14 9 -63 109
-89 185 -25 69 -29 142 -11 220 10 43 8 60 -5 47 -11 -11 -46 -159 -52 -225
l-7 -63 -68 83 c-37 46 -127 142 -199 215 l-131 131 31 54 c50 85 212 301 221
292 3 -2 -1 -10 -7 -16 -7 -7 -12 -23 -12 -36 0 -14 -4 -21 -11 -16 -8 5 -10
-17 -6 -77 5 -93 27 -209 39 -209 5 0 9 26 10 58 3 89 5 112 13 197 4 44 9 96
10 115 4 72 46 358 65 440 33 142 71 239 103 266 33 28 56 30 101 9z m113
-1939 c-8 -20 -98 -46 -160 -46 -90 0 -40 35 93 65 57 12 77 7 67 -19z m-272
-45 c346 -72 507 -121 597 -183 57 -38 163 -136 213 -197 18 -21 15 -20 -34 8
-145 86 -283 141 -413 166 -102 19 -174 19 -279 -1 -72 -13 -277 -69 -331 -89
-17 -7 -90 51 -109 87 -18 34 25 84 141 162 86 57 124 66 215 47z m-645 -430
c0 -12 -20 -25 -27 -18 -7 7 6 27 18 27 5 0 9 -4 9 -9z m4635 -36 c96 -40 164
-129 185 -241 16 -85 6 -157 -34 -241 -72 -149 -217 -222 -421 -211 -105 6
-238 43 -336 94 -69 36 -199 136 -259 198 -29 31 -32 38 -20 46 8 5 26 10 40
10 94 1 299 106 455 234 107 88 142 107 225 122 69 13 116 10 165 -11z m-3530
-928 l160 -82 3 -92 c1 -51 -1 -93 -5 -93 -4 0 -18 16 -31 36 -13 20 -26 34
-28 31 -15 -15 37 -197 90 -319 14 -31 93 -239 172 -453 57 -156 154 -368 173
-379 5 -3 11 4 14 15 5 20 11 21 86 18 45 -3 81 -2 81 1 0 2 -10 14 -23 25
-54 47 -156 225 -214 370 -75 193 -200 589 -222 708 -5 29 -13 60 -17 71 -9
24 -19 28 208 -88 l193 -100 53 -161 c58 -176 159 -390 217 -460 35 -43 37
-44 63 -31 15 7 60 24 100 36 70 22 96 42 128 95 7 14 28 21 75 26 35 4 87 10
116 14 l52 7 -2 -80 c-1 -44 -5 -83 -8 -87 -4 -3 -49 -25 -100 -48 -52 -23
-99 -46 -105 -50 -6 -3 -14 -35 -18 -69 -10 -88 -36 -190 -54 -210 -24 -28
-232 -24 -381 8 -26 5 -33 4 -29 -7 2 -7 19 -16 37 -20 17 -4 34 -9 37 -11 2
-3 -26 -30 -63 -60 -37 -30 -91 -77 -118 -104 -141 -137 -267 -244 -287 -244
-23 0 -84 89 -132 194 -75 161 -149 355 -240 631 -47 143 -98 294 -113 335
-14 41 -36 114 -49 161 -24 92 -24 63 2 467 3 45 9 82 12 81 4 0 79 -37 167
-82z m1965 -78 c0 -22 -4 -23 -31 -9 -26 15 -24 28 6 28 18 0 25 -6 25 -19z
m-1147 -344 c91 -49 390 -188 519 -242 60 -25 108 -49 108 -54 0 -23 -175 -68
-266 -69 -109 0 -155 21 -244 109 -75 74 -130 148 -183 244 -33 58 -23 59 66
12z"/>
<path d="M451 4830 l-42 -70 17 -55 c10 -30 21 -55 25 -55 3 0 10 27 13 61 11
92 11 92 59 61 23 -15 44 -29 47 -32 26 -29 240 -143 250 -134 5 6 -7 17 -156
150 -43 39 -98 87 -120 107 -23 20 -44 37 -47 37 -2 0 -23 -32 -46 -70z"/>
</g>
</svg>
